<svg width="64" height="64" viewBox="0 0 64 64" fill="none" xmlns="http://www.w3.org/2000/svg">
    <circle cx="24" cy="24" r="8" fill="#FFD700"/>
    <line x1="24" y1="12" x2="24" y2="8" stroke="#FFD700" stroke-width="3" stroke-linecap="round"/>
    <line x1="24" y1="40" x2="24" y2="36" stroke="#FFD700" stroke-width="3" stroke-linecap="round"/>
    <line x1="12" y1="24" x2="8" y2="24" stroke="#FFD700" stroke-width="3" stroke-linecap="round"/>
    <line x1="40" y1="24" x2="36" y2="24" stroke="#FFD700" stroke-width="3" stroke-linecap="round"/>
    <line x1="16" y1="16" x2="13" y2="13" stroke="#FFD700" stroke-width="3" stroke-linecap="round"/>
    <line x1="32" y1="32" x2="35" y2="35" stroke="#FFD700" stroke-width="3" stroke-linecap="round"/>
    <line x1="16" y1="32" x2="13" y2="35" stroke="#FFD700" stroke-width="3" stroke-linecap="round"/>
    <line x1="32" y1="16" x2="35" y2="13" stroke="#FFD700" stroke-width="3" stroke-linecap="round"/>
    <path d="M26 48C22.6667 48 19.5 45.5 19.5 42C19.5 38.5 22.6667 36 26 36C27.5 30 33.5 28 38.5 30C44.5 32 46 39.5 46 39.5C46 39.5 51.5 39.5 53.5 42C55.5 44.5 53 48 50 48H26Z" fill="#F0F0F0" stroke="#C0C0C0" stroke-width="2"/>
    <path d="M38 52V58" stroke="#3B82F6" stroke-width="3" stroke-linecap="round"/>
    <path d="M44 52V58" stroke="#3B82F6" stroke-width="3" stroke-linecap="round"/>
</svg>
