<svg width="100%" height="100%" viewBox="0 0 64 64" xmlns="http://www.w3.org/2000/svg" fill="none" stroke="currentColor">
    <g>
        <path d="M47.6,34.4a14.22,14.22,0,0,1-2.43.25,14.41,14.41,0,0,1-14.4-14.4,14.22,14.22,0,0,1,.25-2.43,10,10,0,0,0-19,9.75A10.79,10.79,0,0,0,16,48H39.26a10.8,10.8,0,0,0,8.34-13.6Z" 
              fill="#6b7280" stroke="#9ca3af" stroke-miterlimit="10" stroke-width="2"/>
        <path d="M39.26,48H16a10.79,10.79,0,0,1-3.75-20.83,10,10,0,0,1,19-9.75,14.22,14.22,0,0,1,2.43-.25,14.4,14.4,0,0,1,14.15,16.83A10.8,10.8,0,0,1,39.26,48Z" 
              fill="#9ca3af" stroke="#6b7280" stroke-miterlimit="10" stroke-width="2" opacity="0.4"/>
    </g>
</svg>
